<svg width="11" height="14" viewBox="0 0 11 14" fill="none" xmlns="http://www.w3.org/2000/svg">
<path fillRule="evenodd" clipRule="evenodd" d="M5.36254 13.4992L5.87392 12.923C6.45418 12.259 6.97636 11.6271 7.44046 11.0274L7.82379 10.5217C9.42465 8.36543 10.2251 6.65462 10.2251 5.38928C10.2251 2.68895 8.04828 0.5 5.36254 0.5C2.6768 0.5 0.5 2.68895 0.5 5.38928C0.5 6.65462 1.30043 8.3657 2.90128 10.5225L3.28461 11.0282C3.94717 11.877 4.64027 12.7006 5.36254 13.4992Z" stroke="black" strokeLinecap="round" strokeLinejoin="round"/>
<path d="M5.36253 7.3886C6.48149 7.3886 7.38859 6.48151 7.38859 5.36255C7.38859 4.24358 6.48149 3.33649 5.36253 3.33649C4.24357 3.33649 3.33647 4.24358 3.33647 5.36255C3.33647 6.48151 4.24357 7.3886 5.36253 7.3886Z" stroke="black" strokeLinecap="round" strokeLinejoin="round"/>
</svg>
