<svg width="13" height="14" viewBox="0 0 13 14" fill="none" xmlns="http://www.w3.org/2000/svg">
<path d="M6.06671 6.53332C6.7128 6.53332 7.34437 6.34174 7.88157 5.98279C8.41877 5.62385 8.83747 5.11366 9.08471 4.51676C9.33196 3.91986 9.39665 3.26304 9.2706 2.62937C9.14456 1.9957 8.83344 1.41364 8.37659 0.956784C7.91974 0.499934 7.33768 0.188814 6.704 0.0627695C6.07033 -0.0632754 5.41352 0.00141539 4.81661 0.248661C4.21971 0.495907 3.70953 0.914603 3.35058 1.4518C2.99163 1.989 2.80005 2.62058 2.80005 3.26666C2.80005 4.13304 3.14421 4.96392 3.75683 5.57654C4.36945 6.18916 5.20034 6.53332 6.06671 6.53332ZM6.06671 0.933333C6.5282 0.933333 6.97932 1.07018 7.36304 1.32657C7.74675 1.58296 8.04582 1.94738 8.22243 2.37374C8.39903 2.8001 8.44524 3.26925 8.35521 3.72187C8.26517 4.17449 8.04295 4.59025 7.71662 4.91658C7.3903 5.2429 6.97454 5.46513 6.52192 5.55516C6.0693 5.64519 5.60014 5.59898 5.17378 5.42238C4.74742 5.24577 4.38301 4.94671 4.12662 4.56299C3.87023 4.17928 3.73338 3.72815 3.73338 3.26666C3.73338 2.64783 3.97921 2.05433 4.4168 1.61675C4.85438 1.17917 5.44787 0.933333 6.06671 0.933333Z" fill="black"/>
<path d="M11.886 9.97269C11.1376 9.1817 10.2357 8.55165 9.23557 8.12106C8.2354 7.69047 7.15792 7.46838 6.06899 7.46838C4.98007 7.46838 3.90258 7.69047 2.90241 8.12106C1.90224 8.55165 1.00039 9.1817 0.252001 9.97269C0.0897468 10.146 -0.000367225 10.3746 1.12481e-06 10.612V13.0667C1.12481e-06 13.3142 0.098334 13.5516 0.273368 13.7267C0.448401 13.9017 0.685798 14 0.933333 14H11.2C11.4475 14 11.6849 13.9017 11.8599 13.7267C12.035 13.5516 12.1333 13.3142 12.1333 13.0667V10.612C12.135 10.3753 12.0465 10.1467 11.886 9.97269ZM11.2 13.0667H0.933333V10.6074C1.5947 9.91094 2.39087 9.35638 3.27336 8.97743C4.15586 8.59847 5.10624 8.40305 6.06666 8.40305C7.02708 8.40305 7.97746 8.59847 8.85995 8.97743C9.74245 9.35638 10.5386 9.91094 11.2 10.6074V13.0667Z" fill="black"/>
</svg>
