<svg width="16" height="30" viewBox="0 0 16 30" fill="none" xmlns="http://www.w3.org/2000/svg">
<path d="M0.429976 27.4706C0.292629 27.6137 0.185255 27.7821 0.113983 27.9661C0.042712 28.1501 0.00893857 28.3461 0.0145929 28.5429C0.0202473 28.7397 0.0652188 28.9336 0.146939 29.1133C0.22866 29.293 0.345528 29.4551 0.490872 29.5904C0.636216 29.7256 0.807191 29.8313 0.994032 29.9015C1.18087 29.9717 1.37992 30.005 1.57981 29.9994C1.77971 29.9938 1.97653 29.9495 2.15904 29.8691C2.34156 29.7886 2.50619 29.6735 2.64353 29.5304L15.5839 16.0383C15.8511 15.76 16 15.3915 16 15.0084C16 14.6254 15.8511 14.2569 15.5839 13.9785L2.64353 0.484948C2.50709 0.338693 2.3425 0.220588 2.15931 0.1375C1.97613 0.0544122 1.778 0.00799494 1.57645 0.000943491C1.37489 -0.00610796 1.17392 0.0263494 0.985209 0.0964254C0.796499 0.166503 0.623809 0.272804 0.477171 0.409156C0.330534 0.545507 0.212871 0.709192 0.131018 0.890701C0.0491638 1.07221 0.00475221 1.26792 0.000360562 1.46648C-0.00403013 1.66503 0.031686 1.86247 0.105437 2.04731C0.179188 2.23216 0.289502 2.40073 0.429973 2.54324L12.3838 15.0084L0.429976 27.4706Z" fill="#EF8634"/>
</svg>
