<svg width="16" height="30" viewBox="0 0 16 30" fill="none" xmlns="http://www.w3.org/2000/svg">
<path d="M15.57 27.4706C15.7074 27.6137 15.8147 27.7821 15.886 27.9661C15.9573 28.1501 15.9911 28.3461 15.9854 28.5429C15.9798 28.7397 15.9348 28.9336 15.8531 29.1133C15.7713 29.293 15.6545 29.4551 15.5091 29.5904C15.3638 29.7256 15.1928 29.8313 15.006 29.9015C14.8191 29.9717 14.6201 30.005 14.4202 29.9994C14.2203 29.9938 14.0235 29.9495 13.841 29.8691C13.6584 29.7886 13.4938 29.6735 13.3565 29.5304L0.416136 16.0383C0.148901 15.76 1.91568e-06 15.3915 1.96591e-06 15.0084C2.01614e-06 14.6254 0.148902 14.2569 0.416137 13.9785L13.3565 0.484948C13.4929 0.338693 13.6575 0.220588 13.8407 0.1375C14.0239 0.0544122 14.222 0.00799494 14.4236 0.000943491C14.6251 -0.00610796 14.8261 0.0263494 15.0148 0.0964254C15.2035 0.166503 15.3762 0.272804 15.5228 0.409156C15.6695 0.545507 15.7871 0.709192 15.869 0.890701C15.9508 1.07221 15.9952 1.26792 15.9996 1.46648C16.004 1.66503 15.9683 1.86247 15.8946 2.04731C15.8208 2.23216 15.7105 2.40073 15.57 2.54324L3.6162 15.0084L15.57 27.4706Z" fill="#EF8634"/>
</svg>
