<svg width="8" height="12" viewBox="0 0 8 12" fill="none" xmlns="http://www.w3.org/2000/svg">
<path d="M7.80299 4.47432C7.86542 4.41238 7.91496 4.33869 7.94878 4.25751C7.98259 4.17632 8 4.08924 8 4.00129C8 3.91334 7.98259 3.82626 7.94878 3.74507C7.91496 3.66388 7.86542 3.59019 7.80299 3.52826L4.47288 0.197072C4.41096 0.134626 4.3373 0.0850621 4.25614 0.0512381C4.17498 0.0174141 4.08792 -1.71002e-07 4 -1.74846e-07C3.91208 -1.78689e-07 3.82502 0.0174141 3.74386 0.0512381C3.6627 0.0850621 3.58904 0.134626 3.52712 0.197072L0.197009 3.52826C0.134584 3.59019 0.0850344 3.66388 0.0512214 3.74507C0.0174084 3.82625 0 3.91334 0 4.00129C0 4.08924 0.0174084 4.17632 0.0512214 4.25751C0.0850344 4.33869 0.134584 4.41238 0.197009 4.47432C0.258925 4.53676 0.332587 4.58633 0.413748 4.62015C0.494909 4.65397 0.581962 4.67139 0.669885 4.67139C0.757808 4.67139 0.844861 4.65397 0.926022 4.62015C1.00718 4.58633 1.08085 4.53676 1.14276 4.47432L4 1.60949L6.85724 4.47432C6.91915 4.53676 6.99282 4.58633 7.07398 4.62015C7.15514 4.65397 7.24219 4.67139 7.33012 4.67139C7.41804 4.67139 7.50509 4.65397 7.58625 4.62015C7.66741 4.58633 7.74108 4.53676 7.80299 4.47432ZM4.47288 11.8029L7.80299 8.47174C7.86509 8.40962 7.91435 8.33588 7.94796 8.25471C7.98157 8.17355 7.99886 8.08656 7.99886 7.99871C7.99886 7.82129 7.92841 7.65114 7.80299 7.52568C7.74089 7.46356 7.66717 7.41429 7.58603 7.38067C7.5049 7.34705 7.41794 7.32975 7.33012 7.32975C7.15275 7.32975 6.98265 7.40023 6.85724 7.52568L4 10.3905L1.14276 7.52568C1.08085 7.46324 1.00718 7.41367 0.926022 7.37985C0.844861 7.34603 0.757808 7.32861 0.669885 7.32861C0.581962 7.32861 0.494909 7.34603 0.413748 7.37985C0.332587 7.41367 0.258925 7.46324 0.197009 7.52568C0.134584 7.58762 0.0850344 7.66131 0.0512214 7.74249C0.0174084 7.82368 0 7.91076 0 7.99871C0 8.08666 0.0174084 8.17374 0.0512214 8.25493C0.0850344 8.33612 0.134584 8.4098 0.197009 8.47174L3.52712 11.8029C3.58904 11.8654 3.6627 11.9149 3.74386 11.9488C3.82502 11.9826 3.91208 12 4 12C4.08792 12 4.17498 11.9826 4.25614 11.9488C4.3373 11.9149 4.41096 11.8654 4.47288 11.8029Z" fill="black"/>
</svg>
