<svg width="13" height="13" viewBox="0 0 13 13" fill="none" xmlns="http://www.w3.org/2000/svg">
<path d="M0.5 2.52105C0.5 1.81368 0.5 1.46 0.637684 1.18968C0.758786 0.952016 0.952016 0.758786 1.18968 0.637684C1.46 0.5 1.81368 0.5 2.52105 0.5H10.4789C11.1863 0.5 11.54 0.5 11.8103 0.637684C12.048 0.758786 12.2412 0.952016 12.3623 1.18968C12.5 1.46 12.5 1.81368 12.5 2.52105V10.4789C12.5 11.1863 12.5 11.54 12.3623 11.8103C12.2412 12.048 12.048 12.2412 11.8103 12.3623C11.54 12.5 11.1863 12.5 10.4789 12.5H2.52105C1.81368 12.5 1.46 12.5 1.18968 12.3623C0.952016 12.2412 0.758786 12.048 0.637684 11.8103C0.5 11.54 0.5 11.1863 0.5 10.4789V2.52105Z" stroke="black" stroke-linecap="round"/>
<path d="M10.6053 12.5L6.81579 3.02631M12.5 1.76315L0.5 4.28947M6.81579 8.41368C6.81579 9.77663 5.46421 10.7341 4.87495 11.0872C4.79348 11.136 4.70027 11.1618 4.60526 11.1618C4.51026 11.1618 4.41704 11.136 4.33558 11.0872C3.74632 10.7341 2.39474 9.77663 2.39474 8.41305C2.39474 7.076 3.46589 6.18421 4.60526 6.18421C5.78442 6.18421 6.81579 7.07599 6.81579 8.41368Z" stroke="black"/>
<path d="M4.60526 9.02631C4.95407 9.02631 5.23684 8.74354 5.23684 8.39473C5.23684 8.04592 4.95407 7.76315 4.60526 7.76315C4.25645 7.76315 3.97368 8.04592 3.97368 8.39473C3.97368 8.74354 4.25645 9.02631 4.60526 9.02631Z" fill="black"/>
</svg>
