<svg width="12" height="15" viewBox="0 0 12 15" fill="none" xmlns="http://www.w3.org/2000/svg">
<path opacity="0.7" d="M2.57143 12.5C2.32857 12.5 2.12514 12.42 1.96114 12.26C1.79714 12.1 1.71486 11.9022 1.71429 11.6667C1.71371 11.4311 1.796 11.2333 1.96114 11.0733C2.12629 10.9133 2.32971 10.8333 2.57143 10.8333C2.81314 10.8333 3.01686 10.9133 3.18257 11.0733C3.34829 11.2333 3.43029 11.4311 3.42857 11.6667C3.42686 11.9022 3.34457 12.1003 3.18171 12.2608C3.01886 12.4214 2.81543 12.5011 2.57143 12.5ZM6 12.5C5.75714 12.5 5.55371 12.42 5.38971 12.26C5.22571 12.1 5.14343 11.9022 5.14286 11.6667C5.14229 11.4311 5.22457 11.2333 5.38971 11.0733C5.55486 10.9133 5.75829 10.8333 6 10.8333C6.24171 10.8333 6.44543 10.9133 6.61114 11.0733C6.77686 11.2333 6.85886 11.4311 6.85714 11.6667C6.85543 11.9022 6.77314 12.1003 6.61029 12.2608C6.44743 12.4214 6.244 12.5011 6 12.5ZM9.42857 12.5C9.18571 12.5 8.98229 12.42 8.81829 12.26C8.65429 12.1 8.572 11.9022 8.57143 11.6667C8.57086 11.4311 8.65314 11.2333 8.81829 11.0733C8.98343 10.9133 9.18686 10.8333 9.42857 10.8333C9.67029 10.8333 9.874 10.9133 10.0397 11.0733C10.2054 11.2333 10.2874 11.4311 10.2857 11.6667C10.284 11.9022 10.2017 12.1003 10.0389 12.2608C9.876 12.4214 9.67257 12.5011 9.42857 12.5ZM0 9.16666V7.49999C0 6.02777 0.485714 4.75 1.45714 3.66666C2.42857 2.58333 3.65714 1.94444 5.14286 1.75V0H6.85714V1.75C8.34286 1.94444 9.57143 2.58333 10.5429 3.66666C11.5143 4.75 12 6.02777 12 7.49999V9.16666H0ZM1.71429 7.49999H10.2857C10.2857 6.34722 9.86771 5.36472 9.03171 4.5525C8.19571 3.74028 7.18514 3.33389 6 3.33333C4.81486 3.33278 3.80429 3.73916 2.96829 4.5525C2.13229 5.36583 1.71429 6.34833 1.71429 7.49999ZM2.57143 15C2.32857 15 2.12514 14.92 1.96114 14.76C1.79714 14.6 1.71486 14.4022 1.71429 14.1667C1.71371 13.9311 1.796 13.7333 1.96114 13.5733C2.12629 13.4133 2.32971 13.3333 2.57143 13.3333C2.81314 13.3333 3.01686 13.4133 3.18257 13.5733C3.34829 13.7333 3.43029 13.9311 3.42857 14.1667C3.42686 14.4022 3.34457 14.6003 3.18171 14.7608C3.01886 14.9214 2.81543 15.0011 2.57143 15ZM6 15C5.75714 15 5.55371 14.92 5.38971 14.76C5.22571 14.6 5.14343 14.4022 5.14286 14.1667C5.14229 13.9311 5.22457 13.7333 5.38971 13.5733C5.55486 13.4133 5.75829 13.3333 6 13.3333C6.24171 13.3333 6.44543 13.4133 6.61114 13.5733C6.77686 13.7333 6.85886 13.9311 6.85714 14.1667C6.85543 14.4022 6.77314 14.6003 6.61029 14.7608C6.44743 14.9214 6.244 15.0011 6 15ZM9.42857 15C9.18571 15 8.98229 14.92 8.81829 14.76C8.65429 14.6 8.572 14.4022 8.57143 14.1667C8.57086 13.9311 8.65314 13.7333 8.81829 13.5733C8.98343 13.4133 9.18686 13.3333 9.42857 13.3333C9.67029 13.3333 9.874 13.4133 10.0397 13.5733C10.2054 13.7333 10.2874 13.9311 10.2857 14.1667C10.284 14.4022 10.2017 14.6003 10.0389 14.7608C9.876 14.9214 9.67257 15.0011 9.42857 15Z" fill="black"/>
</svg>
