<svg width="16" height="13" viewBox="0 0 16 13" fill="none" xmlns="http://www.w3.org/2000/svg">
<g opacity="0.7">
<path d="M13.25 12.5V11.375M2.75 12.5V11.375" stroke="black" stroke-linecap="round"/>
<path d="M14.75 6.5C14.75 3.67175 14.75 2.25725 13.871 1.379C12.992 0.50075 11.5782 0.5 8.75 0.5H7.25C4.42175 0.5 3.00725 0.5 2.129 1.379C1.25075 2.258 1.25 3.67175 1.25 6.5M0.5 8.75C0.5 8.051 0.5 7.7015 0.614 7.42625C0.689385 7.24414 0.799922 7.07866 0.939293 6.93929C1.07866 6.79992 1.24414 6.68938 1.42625 6.614C1.7015 6.5 2.051 6.5 2.75 6.5H13.25C13.949 6.5 14.2985 6.5 14.5737 6.614C14.7559 6.68938 14.9213 6.79992 15.0607 6.93929C15.2001 7.07866 15.3106 7.24414 15.386 7.42625C15.5 7.7015 15.5 8.051 15.5 8.75C15.5 9.449 15.5 9.7985 15.386 10.0737C15.3106 10.2559 15.2001 10.4213 15.0607 10.5607C14.9213 10.7001 14.7559 10.8106 14.5737 10.886C14.2985 11 13.949 11 13.25 11H2.75C2.051 11 1.7015 11 1.42625 10.886C1.24414 10.8106 1.07866 10.7001 0.939293 10.5607C0.799922 10.4213 0.689385 10.2559 0.614 10.0737C0.5 9.7985 0.5 9.449 0.5 8.75Z" stroke="black"/>
<path d="M12.875 6.5V5.375C12.875 3.9605 12.875 3.254 12.4355 2.8145C11.996 2.375 11.2895 2.375 9.875 2.375H6.125C4.7105 2.375 4.004 2.375 3.5645 2.8145C3.125 3.254 3.125 3.9605 3.125 5.375V6.5M8 2.75V6.5" stroke="black"/>
</g>
</svg>
