<svg width="12" height="12" viewBox="0 0 12 12" fill="none" xmlns="http://www.w3.org/2000/svg">
<path d="M11.7069 5.08089L6.70687 0.280951C6.51936 0.101055 6.2651 0 6 0C5.7349 0 5.48064 0.101055 5.29313 0.280951L0.293131 5.08089C0.199821 5.1698 0.125855 5.27563 0.0755334 5.39223C0.0252116 5.50883 -0.00046166 5.63387 6.28342e-06 5.76008V11.52C6.28342e-06 11.6473 0.0526848 11.7694 0.146453 11.8594C0.240221 11.9494 0.367398 12 0.500006 12H4.5C4.63261 12 4.75979 11.9494 4.85355 11.8594C4.94732 11.7694 5 11.6473 5 11.52V8.16005H7V11.52C7 11.6473 7.05268 11.7694 7.14645 11.8594C7.24021 11.9494 7.36739 12 7.5 12H11.5C11.6326 12 11.7598 11.9494 11.8535 11.8594C11.9473 11.7694 12 11.6473 12 11.52V5.76008C12.0005 5.63387 11.9748 5.50883 11.9245 5.39223C11.8741 5.27563 11.8002 5.1698 11.7069 5.08089ZM11 11.04H8V7.68006C8 7.55275 7.94732 7.43067 7.85355 7.34065C7.75978 7.25063 7.63261 7.20006 7.5 7.20006H4.5C4.36739 7.20006 4.24022 7.25063 4.14645 7.34065C4.05268 7.43067 4 7.55275 4 7.68006V11.04H1.00001V5.76008L6 0.960143L11 5.76008V11.04Z" fill="black"/>
</svg>
