<svg width="14" height="12" viewBox="0 0 14 12" fill="none" xmlns="http://www.w3.org/2000/svg">
<path opacity="0.7" d="M9.63472 0C10.0246 1.3361e-05 10.4068 0.109506 10.7385 0.316213C11.0702 0.52292 11.3383 0.818677 11.5127 1.17035L12.4808 3.12212C12.6516 3.05153 12.8217 2.98024 12.9869 2.89765C13.153 2.81396 13.3453 2.80027 13.5215 2.85957C13.6976 2.91888 13.8432 3.04633 13.9262 3.21388C14.0092 3.38144 14.0228 3.57537 13.964 3.75302C13.9052 3.93068 13.7788 4.07749 13.6126 4.16118C13.2668 4.33482 13.1087 4.38847 13.1087 4.38847L13.7778 5.73882C13.9241 6.03318 13.9997 6.35718 13.9997 6.68612V8.47059C13.9997 8.76853 13.9374 9.06311 13.8167 9.33509C13.6961 9.60707 13.52 9.85032 13.2997 10.0489V10.9412C13.2997 11.222 13.1891 11.4913 12.9922 11.6899C12.7953 11.8884 12.5283 12 12.2498 12C11.9713 12 11.7043 11.8884 11.5074 11.6899C11.3105 11.4913 11.1998 11.222 11.1998 10.9412V10.5882H2.80026V10.9412C2.80026 11.222 2.68964 11.4913 2.49273 11.6899C2.29583 11.8884 2.02877 12 1.75031 12C1.47184 12 1.20479 11.8884 1.00788 11.6899C0.810978 11.4913 0.700359 11.222 0.700359 10.9412V10.0489C0.27058 9.66071 0.000392926 9.09741 0.000392926 8.47059V6.68612C0.000523735 6.3575 0.0764905 6.03342 0.222282 5.73953L0.891449 4.38847C0.721853 4.3177 0.554262 4.24214 0.388874 4.16188C0.306368 4.1206 0.232752 4.06331 0.172245 3.99328C0.111737 3.92326 0.0655284 3.84188 0.0362667 3.75381C0.00700496 3.66574 -0.00473422 3.57272 0.00172183 3.48007C0.00817788 3.38741 0.0327022 3.29696 0.0738893 3.21388C0.158568 3.04707 0.304973 2.92058 0.481426 2.86179C0.657878 2.80301 0.850188 2.81665 1.01674 2.89976C1.18194 2.97976 1.34946 3.05388 1.51932 3.12212L2.48737 1.17035C2.66179 0.818677 2.92987 0.52292 3.26156 0.316213C3.59325 0.109506 3.97546 1.3361e-05 4.36538 0H9.63472ZM11.7836 4.87341C10.5937 5.25247 8.90046 5.64706 7.00005 5.64706C5.09964 5.64706 3.40643 5.25177 2.21648 4.87341L1.47452 6.36988C1.42574 6.46804 1.40033 6.57632 1.40032 6.68612V8.47059C1.40032 8.6578 1.47407 8.83734 1.60534 8.96972C1.73661 9.1021 1.91465 9.17647 2.10029 9.17647H11.8998C12.0855 9.17647 12.2635 9.1021 12.3948 8.96972C12.526 8.83734 12.5998 8.6578 12.5998 8.47059V6.68612C12.5997 6.57656 12.5743 6.46853 12.5256 6.37059L11.7836 4.87341ZM3.8502 6.35294C4.12867 6.35294 4.39573 6.4645 4.59263 6.66306C4.78953 6.86163 4.90015 7.13095 4.90015 7.41177C4.90015 7.69258 4.78953 7.9619 4.59263 8.16047C4.39573 8.35903 4.12867 8.47059 3.8502 8.47059C3.57174 8.47059 3.30468 8.35903 3.10778 8.16047C2.91088 7.9619 2.80026 7.69258 2.80026 7.41177C2.80026 7.13095 2.91088 6.86163 3.10778 6.66306C3.30468 6.4645 3.57174 6.35294 3.8502 6.35294ZM10.1499 6.35294C10.4284 6.35294 10.6954 6.4645 10.8923 6.66306C11.0892 6.86163 11.1998 7.13095 11.1998 7.41177C11.1998 7.69258 11.0892 7.9619 10.8923 8.16047C10.6954 8.35903 10.4284 8.47059 10.1499 8.47059C9.87143 8.47059 9.60437 8.35903 9.40747 8.16047C9.21057 7.9619 9.09995 7.69258 9.09995 7.41177C9.09995 7.13095 9.21057 6.86163 9.40747 6.66306C9.60437 6.4645 9.87143 6.35294 10.1499 6.35294ZM9.63472 1.41176H4.36538C4.23542 1.41183 4.10805 1.44839 3.99753 1.51733C3.88701 1.58627 3.7977 1.68488 3.73961 1.80212L2.85065 3.59294C3.9342 3.92118 5.39433 4.23529 7.00005 4.23529C8.60577 4.23529 10.0659 3.92118 11.1487 3.59294L10.2605 1.80212C10.2024 1.68488 10.1131 1.58627 10.0026 1.51733C9.89205 1.44839 9.76468 1.41183 9.63472 1.41176Z" fill="black"/>
</svg>
